<svg xmlns="http://www.w3.org/2000/svg" version="1.1" xmlns:xlink="http://www.w3.org/1999/xlink" xmlns:svgjs="http://svgjs.dev/svgjs" width="1000" height="1000" viewBox="0 0 1000 1000"><rect width="1000" height="1000" fill="#096a2e"></rect><g transform="matrix(0.7,0,0,0.7,149.57575757575756,467.0664537967384)"><svg viewBox="0 0 396 38" data-background-color="#096a2e" preserveAspectRatio="xMidYMid meet" height="95" width="1000" xmlns="http://www.w3.org/2000/svg" xmlns:xlink="http://www.w3.org/1999/xlink"><g id="tight-bounds" transform="matrix(1,0,0,1,0.2400000000000091,-0.180829507188065)"><svg viewBox="0 0 395.52 38.36166024818143" height="38.36166024818143" width="395.52"><g><svg viewBox="0 0 395.52 38.36166024818143" height="38.36166024818143" width="395.52"><g><svg viewBox="0 0 395.52 38.36166024818143" height="38.36166024818143" width="395.52"><g id="textblocktransform"><svg viewBox="0 0 395.52 38.36166024818143" height="38.36166024818143" width="395.52" id="textblock"><g><svg viewBox="0 0 395.52 38.36166024818143" height="38.36166024818143" width="395.52"><g><svg viewBox="0 0 395.52 38.36166024818143" height="38.36166024818143" width="395.52"><g transform="matrix(1,0,0,1,0,0)"><svg width="395.52" viewBox="1.2699999809265137 -32.619998931884766 342.3000183105469 33.209999084472656" height="38.36166024818143" data-palette-color="#c9efc7"><path d="M5.08-6.64L5.08-25.49Q5.08-28.42 4.69-29.59L4.69-29.59Q4.49-29.98 3.32-30.35 2.15-30.71 1.56-30.71L1.56-30.71Q1.37-30.71 1.37-31.45L1.37-31.45Q1.37-32.23 1.46-32.32L1.46-32.32Q1.71-32.32 4.17-32.18 6.64-32.03 7.96-32.03L7.96-32.03Q8.35-32.03 14.21-32.32L14.21-32.32Q14.36-31.88 14.36-31.54L14.36-31.54Q14.36-30.71 14.16-30.71L14.16-30.71Q13.72-30.71 12.4-30.32 11.08-29.93 10.99-29.59L10.99-29.59Q10.6-28.08 10.6-25.29L10.6-25.29 10.6-6.93Q10.6-4.25 11.04-2.54L11.04-2.54Q11.13-2.2 12.38-1.83 13.62-1.46 14.06-1.46L14.06-1.46Q14.26-1.46 14.26-0.54L14.26-0.54Q14.26-0.15 14.16 0.15L14.16 0.15Q8.3-0.15 7.96-0.15L7.96-0.15Q6.98-0.15 5.91-0.1 4.83-0.05 3.54 0.02 2.25 0.1 1.46 0.15L1.46 0.15Q1.27-0.05 1.27-0.54L1.27-0.54Q1.27-1.46 1.46-1.46L1.46-1.46Q2.05-1.46 3.3-1.81 4.54-2.15 4.69-2.54L4.69-2.54Q5.08-4.05 5.08-6.64L5.08-6.64ZM43.65-12.26L43.65-25.54Q43.65-28.13 43.16-29.44L43.16-29.44Q42.92-30.03 41.53-30.37 40.13-30.71 39.35-30.71L39.35-30.71Q39.16-30.71 39.13-31.42 39.11-32.13 39.26-32.32L39.26-32.32Q44.48-31.98 45.41-31.98L45.41-31.98Q46.68-31.98 48.68-32.15 50.68-32.32 51.17-32.32L51.17-32.32Q51.27-32.13 51.27-31.54L51.27-31.54Q51.27-30.71 51.07-30.71L51.07-30.71Q50.39-30.71 48.97-30.35 47.56-29.98 47.12-29.35L47.12-29.35Q46.58-28.03 46.58-25.29L46.58-25.29 46.58-6.79Q46.58-5.03 46.77 0.05L46.77 0.05Q46.58 0.24 45.7 0.24L45.7 0.24Q44.92 0.24 44.14-0.88L44.14-0.88 24.7-26.66 24.7-6.88Q24.7-3.96 25.1-2.88L25.1-2.88Q25.34-2.29 26.9-1.88 28.46-1.46 29.1-1.46L29.1-1.46Q29.25-1.46 29.27-0.78 29.29-0.1 29.2 0.15L29.2 0.15Q23.34-0.15 23.09-0.15L23.09-0.15Q21.77-0.15 19.85-0.02 17.92 0.1 17.28 0.15L17.28 0.15Q17.09-0.05 17.09-0.68L17.09-0.68Q17.09-1.46 17.28-1.46L17.28-1.46Q18.11-1.46 19.5-1.83 20.9-2.2 21.29-2.93L21.29-2.93Q21.77-3.96 21.77-7.03L21.77-7.03 21.77-26.17Q21.77-28.81 21.24-29.74L21.24-29.74Q21.04-30.08 19.55-30.37 18.06-30.66 17.38-30.66L17.38-30.66Q17.19-30.66 17.16-31.4 17.14-32.13 17.33-32.32L17.33-32.32Q22.46-32.08 23.14-32.08L23.14-32.08Q24.75-32.08 27.54-32.32L27.54-32.32Q28.46-30.57 30.93-27.12 33.4-23.68 37.69-18.04 41.99-12.4 43.55-10.25L43.55-10.25Q43.65-10.84 43.65-12.26L43.65-12.26ZM54.39-23.93L54.39-23.93Q54.39-27.59 57.47-30.1 60.54-32.62 64.4-32.62L64.4-32.62Q65.77-32.62 66.79-32.47 67.82-32.32 69.65-31.86 71.48-31.4 72.16-31.25L72.16-31.25Q72.75-27.93 72.75-23.73L72.75-23.73Q72.65-23.29 72.16-23.29L72.16-23.29Q70.84-23.29 70.75-23.73L70.75-23.73Q70.45-25.98 68.65-28.13 66.84-30.27 64.25-30.27L64.25-30.27Q62.01-30.27 60.81-29 59.61-27.73 59.61-25.59L59.61-25.59Q59.61-24.85 59.79-24.19 59.96-23.54 60.47-22.9 60.98-22.27 61.3-21.85 61.62-21.44 62.52-20.8 63.42-20.17 63.74-19.92 64.06-19.68 65.2-18.97 66.35-18.26 66.6-18.16L66.6-18.16Q66.89-17.92 68.23-17.11 69.58-16.31 70.11-15.94 70.65-15.58 71.67-14.7 72.7-13.82 73.16-13.04 73.63-12.26 74.02-11.06 74.41-9.86 74.41-8.5L74.41-8.5Q74.41-4.59 71.26-2.05 68.11 0.49 63.96 0.49L63.96 0.49Q61.03 0.49 54.98-0.88L54.98-0.88Q54.54-2.64 54.17-5.3 53.8-7.96 53.8-8.79L53.8-8.79Q53.85-9.18 54.58-9.18L54.58-9.18Q55.85-9.18 56-8.79L56-8.79Q56.2-7.91 56.68-6.86 57.17-5.81 58.03-4.61 58.88-3.42 60.32-2.66 61.76-1.9 63.57-1.9L63.57-1.9Q65.86-1.9 67.38-3.27 68.89-4.64 68.89-7.37L68.89-7.37Q68.89-8.2 68.57-8.98 68.26-9.77 67.84-10.3 67.43-10.84 66.62-11.47 65.82-12.11 65.28-12.45 64.74-12.79 63.69-13.4 62.64-14.01 62.2-14.26L62.2-14.26Q62.06-14.4 61.66-14.65L61.66-14.65Q60.25-15.53 59.52-16.02 58.78-16.5 57.64-17.46 56.49-18.41 55.9-19.24 55.32-20.07 54.85-21.29 54.39-22.51 54.39-23.93ZM80.75-6.64L80.75-25.49Q80.75-28.42 80.36-29.59L80.36-29.59Q80.17-29.98 79-30.35 77.82-30.71 77.24-30.71L77.24-30.71Q77.04-30.71 77.04-31.45L77.04-31.45Q77.04-32.23 77.14-32.32L77.14-32.32Q77.39-32.32 79.85-32.18 82.32-32.03 83.64-32.03L83.64-32.03Q84.03-32.03 89.89-32.32L89.89-32.32Q90.03-31.88 90.03-31.54L90.03-31.54Q90.03-30.71 89.84-30.71L89.84-30.71Q89.4-30.71 88.08-30.32 86.76-29.93 86.66-29.59L86.66-29.59Q86.27-28.08 86.27-25.29L86.27-25.29 86.27-6.93Q86.27-4.25 86.71-2.54L86.71-2.54Q86.81-2.2 88.05-1.83 89.3-1.46 89.74-1.46L89.74-1.46Q89.93-1.46 89.93-0.54L89.93-0.54Q89.93-0.15 89.84 0.15L89.84 0.15Q83.98-0.15 83.64-0.15L83.64-0.15Q82.66-0.15 81.58-0.1 80.51-0.05 79.22 0.02 77.92 0.1 77.14 0.15L77.14 0.15Q76.95-0.05 76.95-0.54L76.95-0.54Q76.95-1.46 77.14-1.46L77.14-1.46Q77.73-1.46 78.97-1.81 80.22-2.15 80.36-2.54L80.36-2.54Q80.75-4.05 80.75-6.64L80.75-6.64ZM99.36-32.13L99.36-32.13Q99.36-32.13 107.8-32.13L107.8-32.13Q115.76-32.13 120.23-27.44 124.7-22.75 124.7-16.41L124.7-16.41Q124.7-9.38 120.18-4.61 115.66 0.15 107.75 0.15L107.75 0.15Q106.73 0.15 103.73 0.05 100.72-0.05 99.4-0.05L99.4-0.05 92.91 0.15Q92.76 0 92.76-0.63L92.76-0.63Q92.76-1.46 92.91-1.46L92.91-1.46Q93.54-1.46 94.77-1.78 95.99-2.1 96.18-2.54L96.18-2.54Q96.52-3.56 96.52-6.98L96.52-6.98 96.52-25.44Q96.52-28.37 96.18-29.44L96.18-29.44Q96.03-29.98 94.81-30.32 93.59-30.66 92.86-30.66L92.86-30.66Q92.67-30.66 92.67-31.4L92.67-31.4Q92.67-32.08 92.86-32.28L92.86-32.28Q96.08-32.13 99.36-32.13ZM102.04-25.88L102.04-25.88 102.04-6.74Q102.04-4 102.58-3.13L102.58-3.13Q103.36-2.34 108.53-2.34L108.53-2.34Q118.45-2.34 118.45-16.6L118.45-16.6Q118.45-22.07 115.79-25.88 113.12-29.69 108.19-29.69L108.19-29.69 107.95-29.69Q103.26-29.69 102.68-28.91L102.68-28.91Q102.04-28.03 102.04-25.88ZM133.92-32.08L133.92-32.08Q136.07-32.08 141.49-32.25 146.91-32.42 149.69-32.42L149.69-32.42Q149.89-30.96 150.48-28.34 151.06-25.73 151.11-25.49L151.11-25.49Q150.87-25.24 150.09-25.24L150.09-25.24Q149.55-25.24 149.4-25.59L149.4-25.59Q147.79-29.93 143.15-29.93L143.15-29.93 140.61-29.93Q137-29.93 136.9-29.3L136.9-29.3Q136.61-27.93 136.61-25.34L136.61-25.34 136.61-17.68Q136.61-17.38 138.76-17.38L138.76-17.38 141.3-17.38Q141.34-17.38 141.49-17.38L141.49-17.38Q144.32-17.38 144.86-17.63 145.4-17.87 145.69-19.34L145.69-19.34Q145.84-20.07 145.98-20.56L145.98-20.56Q146.03-20.9 146.76-20.9L146.76-20.9Q147.45-20.9 147.69-20.65L147.69-20.65 147.69-11.43Q147.5-11.23 146.76-11.23L146.76-11.23Q146.13-11.23 145.98-11.62L145.98-11.62Q145.64-12.94 145.37-13.57 145.1-14.21 145.03-14.26 144.96-14.31 144.62-14.55L144.62-14.55Q143.98-14.94 140.12-14.94L140.12-14.94Q136.61-14.94 136.61-14.55L136.61-14.55 136.61-6.98Q136.61-4.3 137.05-3.03L137.05-3.03Q137.29-2.39 140.37-2.39L140.37-2.39 142.18-2.39Q145.98-2.39 147.99-3.42L147.99-3.42Q148.77-3.81 149.74-5.13 150.72-6.45 151.26-8.11L151.26-8.11Q151.31-8.4 151.94-8.4L151.94-8.4Q153.01-8.4 153.31-8.11L153.31-8.11Q153.16-7.67 152.6-6.1 152.04-4.54 151.75-3.74 151.45-2.93 151.11-1.76 150.77-0.59 150.67 0.15L150.67 0.15Q148.72 0.15 142.59 0 136.46-0.15 133.97-0.05L133.97-0.05 127.48 0.15Q127.33 0 127.33-0.63L127.33-0.63Q127.33-1.46 127.48-1.46L127.48-1.46Q128.11-1.46 129.33-1.78 130.55-2.1 130.75-2.54L130.75-2.54Q131.09-3.56 131.09-6.98L131.09-6.98 131.09-25.44Q131.09-28.37 130.75-29.44L130.75-29.44Q130.6-29.98 129.38-30.32 128.16-30.66 127.43-30.66L127.43-30.66Q127.23-30.66 127.23-31.4L127.23-31.4Q127.23-32.08 127.43-32.28L127.43-32.28Q130.65-32.08 133.92-32.08ZM168.59-29.79L168.59-29.79Q166.54-29.79 165.76-29.44L165.76-29.44Q165.22-29.2 165.17-24.37L165.17-24.37 165.17-18.75Q165.17-17.68 166-17.33 166.83-16.99 168.3-16.99L168.3-16.99 169.57-16.99Q171.37-16.99 172.81-18.7 174.25-20.41 174.25-23.14L174.25-23.14Q174.25-29.79 168.59-29.79ZM169.37-32.23L169.37-32.23Q170.64-32.23 172.03-31.96 173.42-31.69 174.91-31.05 176.4-30.42 177.57-29.49 178.74-28.56 179.48-27.05 180.21-25.54 180.21-23.63L180.21-23.63Q180.21-21 178.5-18.65 176.79-16.31 174.35-15.33L174.35-15.33Q173.96-15.19 174.15-14.84L174.15-14.84Q176.89-9.91 179.62-6.54L179.62-6.54Q181.33-4.44 183.31-2.95 185.29-1.46 186.95-1.46L186.95-1.46Q187.14-1.17 187.14-0.68L187.14-0.68Q187.14-0.2 186.95 0.2L186.95 0.2Q186.36 0.29 185.43 0.29L185.43 0.29Q182.94 0.29 180.92-0.29 178.89-0.88 177.4-2.03 175.91-3.17 174.94-4.25 173.96-5.32 172.89-6.98L172.89-6.98Q172.2-7.96 171.32-9.28 170.44-10.6 169.98-11.3 169.52-12.01 168.93-12.79 168.34-13.57 167.93-13.96 167.51-14.36 167.12-14.5L167.12-14.5Q166.83-14.65 165.95-14.65L165.95-14.65Q165.17-14.65 165.17-13.82L165.17-13.82 165.17-6.93Q165.17-4 165.56-2.78L165.56-2.78Q165.71-2.2 167.2-1.83 168.69-1.46 169.37-1.46L169.37-1.46Q169.57-1.46 169.57-0.63L169.57-0.63Q169.57-0.1 169.47 0.2L169.47 0.2Q164.1-0.1 162.53-0.1L162.53-0.1Q161.22-0.1 159.58-0.02 157.94 0.05 156.97 0.1L156.97 0.1 155.99 0.2Q155.84 0 155.84-0.68L155.84-0.68Q155.84-1.46 155.99-1.46L155.99-1.46Q156.63-1.46 157.87-1.78 159.12-2.1 159.31-2.54L159.31-2.54Q159.6-3.42 159.6-6.98L159.6-6.98 159.6-25.44Q159.6-28.22 159.31-29.44L159.31-29.44Q159.16-29.83 157.87-30.25 156.58-30.66 155.99-30.66L155.99-30.66Q155.8-30.66 155.8-31.4L155.8-31.4Q155.8-32.13 155.99-32.28L155.99-32.28Q161.17-32.13 162.49-32.13L162.49-32.13Q163.85-32.13 165.88-32.18 167.9-32.23 169.37-32.23ZM194.98-5.03Q195.93-4.05 195.93-2.73 195.93-1.42 194.98-0.42 194.03 0.59 192.71 0.59L192.71 0.59Q191.34 0.59 190.36-0.42 189.39-1.42 189.39-2.73 189.39-4.05 190.36-5.03 191.34-6.01 192.71-6.01L192.71-6.01Q194.03-6.01 194.98-5.03ZM204.52-32.03L204.52-32.03Q205.2-32.03 211.21-32.32L211.21-32.32Q211.36-32.13 211.36-31.42 211.36-30.71 211.16-30.71L211.16-30.71Q210.77-30.71 210.14-30.59 209.5-30.47 208.82-30.05 208.13-29.64 208.13-29L208.13-29Q208.13-28.08 211.85-18.99L211.85-18.99Q212.43-17.43 212.82-16.6L212.82-16.6Q213.41-15.09 214.29-13.11 215.17-11.13 215.8-9.86 216.44-8.59 216.44-8.69L216.44-8.69 223.56-25.54Q224.54-27.83 224.54-28.91L224.54-28.91Q224.54-29.79 223.39-30.25 222.25-30.71 221.07-30.71L221.07-30.71Q220.88-30.71 220.9-31.42 220.93-32.13 221.02-32.32L221.02-32.32Q221.46-32.32 223.37-32.18 225.27-32.03 226.44-32.03L226.44-32.03Q227.71-32.03 229.37-32.15 231.03-32.28 231.77-32.32L231.77-32.32Q231.86-32.08 231.86-31.59L231.86-31.59Q231.86-30.76 231.77-30.76L231.77-30.76Q231.13-30.76 230.08-30.4 229.03-30.03 228.45-29.35L228.45-29.35Q227.71-28.17 226.35-25.05L226.35-25.05 216.19-1.27Q215.46 0.49 214.29 0.49L214.29 0.49Q213.8 0.49 213.51 0L213.51 0 203.45-25Q202.32-27.93 201.59-29.35L201.59-29.35Q201.25-29.98 200.08-30.35 198.91-30.71 198.22-30.71L198.22-30.71Q198.03-30.71 198.03-31.45L198.03-31.45Q198.03-32.13 198.17-32.32L198.17-32.32Q198.52-32.32 200.86-32.18 203.2-32.03 204.52-32.03ZM237.28-6.64L237.28-25.49Q237.28-28.42 236.89-29.59L236.89-29.59Q236.7-29.98 235.52-30.35 234.35-30.71 233.77-30.71L233.77-30.71Q233.57-30.71 233.57-31.45L233.57-31.45Q233.57-32.23 233.67-32.32L233.67-32.32Q233.91-32.32 236.38-32.18 238.84-32.03 240.16-32.03L240.16-32.03Q240.55-32.03 246.41-32.32L246.41-32.32Q246.56-31.88 246.56-31.54L246.56-31.54Q246.56-30.71 246.36-30.71L246.36-30.71Q245.92-30.71 244.61-30.32 243.29-29.93 243.19-29.59L243.19-29.59Q242.8-28.08 242.8-25.29L242.8-25.29 242.8-6.93Q242.8-4.25 243.24-2.54L243.24-2.54Q243.34-2.2 244.58-1.83 245.83-1.46 246.27-1.46L246.27-1.46Q246.46-1.46 246.46-0.54L246.46-0.54Q246.46-0.15 246.36 0.15L246.36 0.15Q240.5-0.15 240.16-0.15L240.16-0.15Q239.19-0.15 238.11-0.1 237.04-0.05 235.74 0.02 234.45 0.1 233.67 0.15L233.67 0.15Q233.47-0.05 233.47-0.54L233.47-0.54Q233.47-1.46 233.67-1.46L233.67-1.46Q234.25-1.46 235.5-1.81 236.75-2.15 236.89-2.54L236.89-2.54Q237.28-4.05 237.28-6.64L237.28-6.64ZM255.88-32.13L255.88-32.13Q255.88-32.13 264.33-32.13L264.33-32.13Q272.29-32.13 276.76-27.44 281.23-22.75 281.23-16.41L281.23-16.41Q281.23-9.38 276.71-4.61 272.19 0.15 264.28 0.15L264.28 0.15Q263.26 0.15 260.25 0.05 257.25-0.05 255.93-0.05L255.93-0.05 249.44 0.15Q249.29 0 249.29-0.63L249.29-0.63Q249.29-1.46 249.44-1.46L249.44-1.46Q250.07-1.46 251.29-1.78 252.51-2.1 252.71-2.54L252.71-2.54Q253.05-3.56 253.05-6.98L253.05-6.98 253.05-25.44Q253.05-28.37 252.71-29.44L252.71-29.44Q252.56-29.98 251.34-30.32 250.12-30.66 249.39-30.66L249.39-30.66Q249.19-30.66 249.19-31.4L249.19-31.4Q249.19-32.08 249.39-32.28L249.39-32.28Q252.61-32.13 255.88-32.13ZM258.57-25.88L258.57-25.88 258.57-6.74Q258.57-4 259.11-3.13L259.11-3.13Q259.89-2.34 265.06-2.34L265.06-2.34Q274.98-2.34 274.98-16.6L274.98-16.6Q274.98-22.07 272.31-25.88 269.65-29.69 264.72-29.69L264.72-29.69 264.48-29.69Q259.79-29.69 259.2-28.91L259.2-28.91Q258.57-28.03 258.57-25.88ZM290.45-32.08L290.45-32.08Q292.6-32.08 298.02-32.25 303.44-32.42 306.22-32.42L306.22-32.42Q306.42-30.96 307-28.34 307.59-25.73 307.64-25.49L307.64-25.49Q307.39-25.24 306.61-25.24L306.61-25.24Q306.08-25.24 305.93-25.59L305.93-25.59Q304.32-29.93 299.68-29.93L299.68-29.93 297.14-29.93Q293.53-29.93 293.43-29.3L293.43-29.3Q293.14-27.93 293.14-25.34L293.14-25.34 293.14-17.68Q293.14-17.38 295.29-17.38L295.29-17.38 297.82-17.38Q297.87-17.38 298.02-17.38L298.02-17.38Q300.85-17.38 301.39-17.63 301.93-17.87 302.22-19.34L302.22-19.34Q302.37-20.07 302.51-20.56L302.51-20.56Q302.56-20.9 303.29-20.9L303.29-20.9Q303.98-20.9 304.22-20.65L304.22-20.65 304.22-11.43Q304.03-11.23 303.29-11.23L303.29-11.23Q302.66-11.23 302.51-11.62L302.51-11.62Q302.17-12.94 301.9-13.57 301.63-14.21 301.56-14.26 301.49-14.31 301.14-14.55L301.14-14.55Q300.51-14.94 296.65-14.94L296.65-14.94Q293.14-14.94 293.14-14.55L293.14-14.55 293.14-6.98Q293.14-4.3 293.58-3.03L293.58-3.03Q293.82-2.39 296.9-2.39L296.9-2.39 298.7-2.39Q302.51-2.39 304.51-3.42L304.51-3.42Q305.29-3.81 306.27-5.13 307.25-6.45 307.79-8.11L307.79-8.11Q307.83-8.4 308.47-8.4L308.47-8.4Q309.54-8.4 309.84-8.11L309.84-8.11Q309.69-7.67 309.13-6.1 308.57-4.54 308.27-3.74 307.98-2.93 307.64-1.76 307.3-0.59 307.2 0.15L307.2 0.15Q305.25 0.15 299.12 0 292.99-0.15 290.5-0.05L290.5-0.05 284.01 0.15Q283.86 0 283.86-0.63L283.86-0.63Q283.86-1.46 284.01-1.46L284.01-1.46Q284.64-1.46 285.86-1.78 287.08-2.1 287.28-2.54L287.28-2.54Q287.62-3.56 287.62-6.98L287.62-6.98 287.62-25.44Q287.62-28.37 287.28-29.44L287.28-29.44Q287.13-29.98 285.91-30.32 284.69-30.66 283.96-30.66L283.96-30.66Q283.76-30.66 283.76-31.4L283.76-31.4Q283.76-32.08 283.96-32.28L283.96-32.28Q287.18-32.08 290.45-32.08ZM327.17-30.18L327.17-30.18Q322.97-30.18 320.75-26.34 318.52-22.51 318.52-17.09L318.52-17.09Q318.52-13.43 319.53-10.11 320.53-6.79 322.92-4.37 325.31-1.95 328.68-1.95L328.68-1.95Q332.83-1.95 335.1-5.83 337.37-9.72 337.37-15.09L337.37-15.09Q337.37-18.85 336.4-22.14 335.42-25.44 333.03-27.81 330.63-30.18 327.17-30.18ZM316.86-4.35Q312.27-9.18 312.27-16.02 312.27-22.85 316.86-27.71 321.45-32.57 327.9-32.57 334.35-32.57 338.96-27.71 343.57-22.85 343.57-16.02 343.57-9.18 338.96-4.35 334.35 0.49 327.9 0.49 321.45 0.49 316.86-4.35Z" opacity="1" transform="matrix(1,0,0,1,0,0)" fill="#c9efc7" class="wordmark-text-0" data-fill-palette-color="primary" id="text-0"></path></svg></g></svg></g></svg></g></svg></g></svg></g></svg></g><defs></defs></svg><rect width="395.52" height="38.36166024818143" fill="none" stroke="none" visibility="hidden"></rect></g></svg></g></svg>